<svg id="visual" viewBox="0 0 900 300" width="900" height="300" xmlns="http://www.w3.org/2000/svg" xmlns:xlink="http://www.w3.org/1999/xlink" version="1.1"><path d="M0 34L113 34L113 19L225 19L225 106L338 106L338 34L450 34L450 31L563 31L563 94L675 94L675 37L788 37L788 25L900 25L900 37L900 0L900 0L788 0L788 0L675 0L675 0L563 0L563 0L450 0L450 0L338 0L338 0L225 0L225 0L113 0L113 0L0 0Z" fill="#c1d8c3"></path><path d="M0 118L113 118L113 58L225 58L225 157L338 157L338 70L450 70L450 73L563 73L563 136L675 136L675 124L788 124L788 82L900 82L900 79L900 35L900 23L788 23L788 35L675 35L675 92L563 92L563 29L450 29L450 32L338 32L338 104L225 104L225 17L113 17L113 32L0 32Z" fill="#799b97"></path><path d="M0 238L113 238L113 256L225 256L225 271L338 271L338 175L450 175L450 142L563 142L563 247L675 247L675 181L788 181L788 214L900 214L900 265L900 77L900 80L788 80L788 122L675 122L675 134L563 134L563 71L450 71L450 68L338 68L338 155L225 155L225 56L113 56L113 116L0 116Z" fill="#446069"></path><path d="M0 301L113 301L113 301L225 301L225 301L338 301L338 301L450 301L450 301L563 301L563 301L675 301L675 301L788 301L788 301L900 301L900 301L900 263L900 212L788 212L788 179L675 179L675 245L563 245L563 140L450 140L450 173L338 173L338 269L225 269L225 254L113 254L113 236L0 236Z" fill="#1f2937"></path></svg>