<svg id="visual" viewBox="0 0 900 200" width="900" height="200" xmlns="http://www.w3.org/2000/svg" xmlns:xlink="http://www.w3.org/1999/xlink" version="1.1"><rect x="0" y="0" width="900" height="200" fill="#143D60"></rect><path d="M0 74L129 88L257 92L386 94L514 84L643 81L771 75L900 74L900 201L771 201L643 201L514 201L386 201L257 201L129 201L0 201Z" fill="#096778"></path><path d="M0 116L129 115L257 117L386 110L514 111L643 116L771 118L900 100L900 201L771 201L643 201L514 201L386 201L257 201L129 201L0 201Z" fill="#00958d"></path><path d="M0 132L129 129L257 141L386 140L514 140L643 127L771 130L900 140L900 201L771 201L643 201L514 201L386 201L257 201L129 201L0 201Z" fill="#00c180"></path><path d="M0 166L129 158L257 169L386 165L514 168L643 158L771 156L900 161L900 201L771 201L643 201L514 201L386 201L257 201L129 201L0 201Z" fill="#75e63c"></path></svg>