<svg id="visual" viewBox="0 0 900 100" width="900" height="100" xmlns="http://www.w3.org/2000/svg" xmlns:xlink="http://www.w3.org/1999/xlink" version="1.1"><g stroke-width="1" stroke-linejoin="bevel"><path d="M375 100L362 0L291 100Z" fill="#f8a222" stroke="#f8a222"></path><path d="M362 0L278 0L291 100Z" fill="#eb971b" stroke="#eb971b"></path><path d="M278 0L211 100L291 100Z" fill="#eb971b" stroke="#eb971b"></path><path d="M222 0L211 100L278 0Z" fill="#e49218" stroke="#e49218"></path><path d="M375 100L531 0L362 0Z" fill="#ffa725" stroke="#ffa725"></path><path d="M527 100L531 0L375 100Z" fill="#eb971b" stroke="#eb971b"></path><path d="M222 0L101 0L211 100Z" fill="#f8a222" stroke="#f8a222"></path><path d="M101 0L63 100L211 100Z" fill="#f19d1f" stroke="#f19d1f"></path><path d="M527 100L619 100L531 0Z" fill="#e09017" stroke="#e09017"></path><path d="M619 100L635 0L531 0Z" fill="#ee9a1d" stroke="#ee9a1d"></path><path d="M0 0L0 100L63 100Z" fill="#eb971b" stroke="#eb971b"></path><path d="M101 0L0 0L63 100Z" fill="#e49218" stroke="#e49218"></path><path d="M619 100L700 100L635 0Z" fill="#dd8d15" stroke="#dd8d15"></path><path d="M700 100L711 0L635 0Z" fill="#e09017" stroke="#e09017"></path><path d="M700 100L798 100L711 0Z" fill="#f59f20" stroke="#f59f20"></path><path d="M798 100L801 0L711 0Z" fill="#ffa725" stroke="#ffa725"></path><path d="M798 100L900 100L801 0Z" fill="#f19d1f" stroke="#f19d1f"></path><path d="M900 100L900 0L801 0Z" fill="#e09017" stroke="#e09017"></path></g></svg>