<svg id="visual" viewBox="0 0 960 300" width="960" height="300" xmlns="http://www.w3.org/2000/svg" xmlns:xlink="http://www.w3.org/1999/xlink" version="1.1"><rect x="0" y="0" width="960" height="300" fill="#C1D8C3"></rect><path d="M0 151L20 154.7C40 158.3 80 165.7 120 162.8C160 160 200 147 240 145C280 143 320 152 360 159.5C400 167 440 173 480 169.2C520 165.3 560 151.7 600 151C640 150.3 680 162.7 720 163C760 163.3 800 151.7 840 151.2C880 150.7 920 161.3 940 166.7L960 172L960 0L940 0C920 0 880 0 840 0C800 0 760 0 720 0C680 0 640 0 600 0C560 0 520 0 480 0C440 0 400 0 360 0C320 0 280 0 240 0C200 0 160 0 120 0C80 0 40 0 20 0L0 0Z" fill="#cfc6af"></path><path d="M0 106L20 113.7C40 121.3 80 136.7 120 142C160 147.3 200 142.7 240 135C280 127.3 320 116.7 360 117.8C400 119 440 132 480 136.2C520 140.3 560 135.7 600 133C640 130.3 680 129.7 720 131C760 132.3 800 135.7 840 131.5C880 127.3 920 115.7 940 109.8L960 104L960 0L940 0C920 0 880 0 840 0C800 0 760 0 720 0C680 0 640 0 600 0C560 0 520 0 480 0C440 0 400 0 360 0C320 0 280 0 240 0C200 0 160 0 120 0C80 0 40 0 20 0L0 0Z" fill="#d9c18e"></path><path d="M0 93L20 90.7C40 88.3 80 83.7 120 82.8C160 82 200 85 240 89.7C280 94.3 320 100.7 360 98.7C400 96.7 440 86.3 480 82.5C520 78.7 560 81.3 600 81.7C640 82 680 80 720 80.2C760 80.3 800 82.7 840 85.5C880 88.3 920 91.7 940 93.3L960 95L960 0L940 0C920 0 880 0 840 0C800 0 760 0 720 0C680 0 640 0 600 0C560 0 520 0 480 0C440 0 400 0 360 0C320 0 280 0 240 0C200 0 160 0 120 0C80 0 40 0 20 0L0 0Z" fill="#e4ba6d"></path><path d="M0 80L20 80.2C40 80.3 80 80.7 120 81.2C160 81.7 200 82.3 240 80.8C280 79.3 320 75.7 360 71.5C400 67.3 440 62.7 480 63.5C520 64.3 560 70.7 600 73.8C640 77 680 77 720 75.5C760 74 800 71 840 67C880 63 920 58 940 55.5L960 53L960 0L940 0C920 0 880 0 840 0C800 0 760 0 720 0C680 0 640 0 600 0C560 0 520 0 480 0C440 0 400 0 360 0C320 0 280 0 240 0C200 0 160 0 120 0C80 0 40 0 20 0L0 0Z" fill="#f1b24c"></path><path d="M0 44L20 43.2C40 42.3 80 40.7 120 41.2C160 41.7 200 44.3 240 43.3C280 42.3 320 37.7 360 38.2C400 38.7 440 44.3 480 43.8C520 43.3 560 36.7 600 35.7C640 34.7 680 39.3 720 41.7C760 44 800 44 840 42.5C880 41 920 38 940 36.5L960 35L960 0L940 0C920 0 880 0 840 0C800 0 760 0 720 0C680 0 640 0 600 0C560 0 520 0 480 0C440 0 400 0 360 0C320 0 280 0 240 0C200 0 160 0 120 0C80 0 40 0 20 0L0 0Z" fill="#ffa725"></path></svg>